<?xml version="1.0" encoding="utf-8"?>
<!-- Generator: Adobe Illustrator 25.4.1, SVG Export Plug-In . SVG Version: 6.00 Build 0)  -->
<svg version="1.1" id="Calque_1" xmlns="http://www.w3.org/2000/svg" xmlns:xlink="http://www.w3.org/1999/xlink" x="0px" y="0px"
	 viewBox="0 0 30.46 28.89" style="enable-background:new 0 0 30.46 28.89;" xml:space="preserve">
<style type="text/css">
	.st0{fill-rule:evenodd;clip-rule:evenodd;}
</style>
<g>
	<path d="M18.1,0.4l9.3,3.94c2.54,1.08,3.74,4.01,2.68,6.56l-6.24,14.94c-1.06,2.55-3.99,3.74-6.53,2.67L8,24.56
		C5.46,23.49,4.26,20.55,5.32,18l6.24-14.94C12.63,0.51,15.55-0.68,18.1,0.4z"/>
	<path class="st0" d="M10.47,1.65C9.78,2.26,9.22,3.04,8.85,3.96L3.28,18.19c-1.21,3.09,0.31,6.58,3.39,7.8l4.72,1.88H4
		c-2.21,0-4-1.79-4-4V5.65c0-2.21,1.79-4,4-4H10.47z"/>
</g>
</svg>
